# xmcd
#
# Track frame offsets: 
#        150
#        12557
#        26217
#        38414
#        51331
#        66311
#        84411
#        100546
#        108326
#        119931
#        136771
#
# Disc length: 1933 seconds
#
# Revision: 1
# Processed by: cddbd v1.5.2PL0 Copyright (c) Steve Scherf et al.
# Submitted via: ExactAudioCopy v1.0b4
#
DISCID=92078b0b
DTITLE=Cedell Davis - The Horror Of It All
DYEAR=1998
DGENRE=Blues
TTITLE0=Coon Can Mattie
TTITLE1=Chicken Hawk
TTITLE2=Keep On Snatchin' It Back
TTITLE3=The Horror
TTITLE4=Come Here Baby
TTITLE5=Worried Life
TTITLE6=Cold Chills
TTITLE7=Mistreatin' Me
TTITLE8=I Want You
TTITLE9=If You Like Fat Women
TTITLE10=Tojo Told Hitler
EXTD=Garin Wallace
EXTT0=
EXTT1=
EXTT2=
EXTT3=
EXTT4=
EXTT5=
EXTT6=
EXTT7=
EXTT8=
EXTT9=
EXTT10=
PLAYORDER=
